<svg width="55" height="55" viewBox="0 0 55 55" fill="none" xmlns="http://www.w3.org/2000/svg">
<rect width="55" height="55" rx="27.5" fill="#F7F7F7"/>
<path fill-rule="evenodd" clip-rule="evenodd" d="M39.5 27.5729C39.5 20.9322 34.1274 15.5488 27.5 15.5488C20.8726 15.5488 15.5 20.9322 15.5 27.5729C15.5 33.5744 19.8882 38.5488 25.625 39.4509V31.0486H22.5781V27.5729H25.625V24.9238C25.625 21.9103 27.4165 20.2457 30.1576 20.2457C31.4705 20.2457 32.8437 20.4806 32.8437 20.4806V23.4396H31.3306C29.8399 23.4396 29.375 24.3665 29.375 25.3174V27.5729H32.7031L32.1711 31.0486H29.375V39.4509C35.1118 38.5488 39.5 33.5744 39.5 27.5729Z" fill="#2E333C"/>
</svg>
