<svg width="56" height="55" viewBox="0 0 56 55" fill="none" xmlns="http://www.w3.org/2000/svg">
<rect x="0.5" width="55" height="55" rx="27.5" fill="#F7F7F7"/>
<path d="M38.9997 28.2639C38.9997 27.3411 38.9249 26.6676 38.7628 25.9692H28.2246V30.1346H34.4103C34.2856 31.1697 33.6122 32.7286 32.1156 33.7762L32.0946 33.9156L35.4266 36.4969L35.6574 36.5199C37.7775 34.5619 38.9997 31.681 38.9997 28.2639" fill="#2E333C"/>
<path d="M28.2242 39.2367C31.2547 39.2367 33.7988 38.239 35.6571 36.518L32.1152 33.7742C31.1674 34.4352 29.8953 34.8966 28.2242 34.8966C25.2561 34.8966 22.7369 32.9387 21.8389 30.2324L21.7072 30.2436L18.2426 32.9249L18.1973 33.0509C20.043 36.7175 23.8343 39.2367 28.2242 39.2367Z" fill="#2E333C"/>
<path d="M21.8388 30.2343C21.6018 29.5359 21.4647 28.7876 21.4647 28.0144C21.4647 27.2411 21.6018 26.4929 21.8263 25.7945L21.82 25.6458L18.312 22.9214L18.1972 22.976C17.4365 24.4975 17 26.2061 17 28.0144C17 29.8227 17.4365 31.5312 18.1972 33.0527L21.8388 30.2343" fill="#2E333C"/>
<path d="M28.2241 21.1319C30.3318 21.1319 31.7534 22.0423 32.5641 22.8031L35.7318 19.7103C33.7863 17.9019 31.2546 16.792 28.2241 16.792C23.8342 16.792 20.043 19.3112 18.1973 22.9777L21.8264 25.7962C22.7369 23.09 25.256 21.1319 28.2241 21.1319" fill="#2E333C"/>
</svg>
